<?xml version="1.0" encoding="UTF-8" standalone="no"?>
<svg
   xmlns:dc="http://purl.org/dc/elements/1.1/"
   xmlns:cc="http://creativecommons.org/ns#"
   xmlns:rdf="http://www.w3.org/1999/02/22-rdf-syntax-ns#"
   xmlns:svg="http://www.w3.org/2000/svg"
   xmlns="http://www.w3.org/2000/svg"
   xmlns:sodipodi="http://sodipodi.sourceforge.net/DTD/sodipodi-0.dtd"
   xmlns:inkscape="http://www.inkscape.org/namespaces/inkscape"
   version="1.0"
   width="1254.000000pt"
   height="1280.000000pt"
   viewBox="0 0 1254.000000 1280.000000"
   preserveAspectRatio="xMidYMid meet"
   id="svg3811"
   sodipodi:docname="inky.svg"
   inkscape:version="0.92.3 (2405546, 2018-03-11)">
  <metadata
     id="metadata3817">
    <rdf:RDF>
      <cc:Work
         rdf:about="">
        <dc:format>image/svg+xml</dc:format>
        <dc:type
           rdf:resource="http://purl.org/dc/dcmitype/StillImage" />
        <dc:title></dc:title>
      </cc:Work>
    </rdf:RDF>
  </metadata>
  <defs
     id="defs3815" />
  <sodipodi:namedview
     pagecolor="#ffffff"
     bordercolor="#666666"
     borderopacity="1"
     objecttolerance="10"
     gridtolerance="10"
     guidetolerance="10"
     inkscape:pageopacity="0"
     inkscape:pageshadow="2"
     inkscape:window-width="1867"
     inkscape:window-height="2049"
     id="namedview3813"
     showgrid="false"
     inkscape:zoom="0.72063993"
     inkscape:cx="1105.3817"
     inkscape:cy="546.85531"
     inkscape:window-x="5772"
     inkscape:window-y="33"
     inkscape:window-maximized="0"
     inkscape:current-layer="svg3811" />
  <g
     transform="translate(0.000000,1280.000000) scale(0.100000,-0.100000)"
     fill="#000000"
     stroke="none"
     id="g3809">
    <path
       d="M5960 12794 c-548 -37 -879 -86 -1323 -199 -1503 -380 -2836 -1320 -3672 -2589 -147 -225 -211 -335 -345 -601 -338 -669 -524 -1325 -602 -2120 -17 -168 -16 -1539 1 -1980 67 -1772 248 -2940 574 -3698 l55 -128 -57 -25 c-31 -14 -67 -30 -79 -35 -45 -17 -167 -92 -224 -137 -120 -93 -164 -205 -120 -304 178 -402 1659 -752 3827 -903 762 -53 1314 -70 2270 -70 968 1 1505 18 2315 76 1927 136 3362 449 3689 804 164 178 77 356 -257 522 -42 21 -79 39 -81 40 -2 1 26 59 62 130 379 748 548 1853 546 3583 0 739 -26 2048 -44 2215 -92 875 -362 1685 -808 2425 -605 1002 -1506 1821 -2581 2346 -717 349 -1460 555 -2276 629 -163 15 -742 28 -870 19z m-2009 -9191 c108 -42 209 -113 320 -223 202 -202 361 -440 673 -1011 l144 -264 -86 -7 c-48 -4 -238 -15 -422 -23 -853 -40 -1728 -123 -2366 -224 -99 -16 -180 -27 -181 -26 -4 3 421 615 554 797 441 608 747 907 1023 1000 87 29 241 20 341 -19z m4787 -24 c77 -18 241 -103 337 -175 191 -143 454 -433 749 -824 154 -204 530 -730 524 -734 -1 -2 -73 7 -158 20 -695 105 -1599 184 -2580 225 -151 6 -276 12 -278 14 -2 1 52 103 118 225 287 527 469 798 665 996 137 137 254 214 384 250 58 16 178 17 239 3z"
       id="path3807" />
  </g>
  <path
     style="fill:#3f9fcf;stroke-width:0.98122066;fill-opacity:1"
     d="m 738.1723,1705.0264 c -162.40166,-2.7881 -325.68353,-15.7056 -452.34272,-35.7858 -168.47651,-26.7098 -265.050583,-64.4222 -264.897413,-103.4429 0.07152,-18.2202 19.063472,-35.2294 59.530535,-53.3157 l 6.576785,-2.9393 -5.442573,-12.5932 C 57.507917,1441.2118 41.065727,1378.8267 27.848875,1293.0183 17.267953,1224.3232 8.9158762,1132.1048 4.7433165,1037.9009 4.1935337,1025.4885 3.509189,1011.8005 3.2225504,1007.4831 1.9577479,988.4326 0.95305413,839.63454 1.7484288,789.1615 2.458323,744.11291 2.9521036,731.90644 4.6063048,718.51362 18.22942,608.21748 43.582663,526.8857 93.920977,431.99718 120.47466,381.94307 155.70078,331.4131 196.8692,284.32347 c 15.40958,-17.62591 60.32051,-62.00213 78.24383,-77.31226 20.8985,-17.85152 42.34275,-34.65912 62.59999,-49.06471 C 453.90176,75.320897 590.13636,23.112461 732.28498,6.7368604 c 42.63997,-4.9121489 60.7447,-5.7648465 109.4061,-5.1528155 48.88243,0.614811 62.61799,1.3053852 91.69622,4.6101516 232.7697,26.4544925 442.2332,144.9941535 579.89,328.1715335 81.7796,108.82283 132.9505,235.40446 150.136,371.39202 3.7857,29.95597 5.7526,92.70725 7.3662,235.00234 2.3381,206.20391 -5.3855,323.88811 -27.9486,425.84981 -10.9283,49.3845 -23.1803,85.5491 -42.8242,126.4055 -5.4035,11.2385 -9.6736,20.574 -9.4891,20.7455 0.1844,0.1715 5.1925,2.8373 11.1289,5.9241 21.8148,11.3431 36.4295,23.3617 41.7554,34.338 6.7548,13.921 -0.034,29.8946 -18.4737,43.4628 -73.0272,53.7366 -325.1684,95.6813 -638.50707,106.2181 -28.48916,0.958 -212.40751,1.9378 -248.24883,1.3225 z M 292.24712,1460.771 c 87.92227,-13.7525 192.20493,-23.7673 311.00734,-29.8678 49.6147,-2.5478 72.76483,-3.9458 74.40706,-4.4934 1.45388,-0.4849 1.15451,-1.0666 -23.19813,-45.0816 -31.76623,-57.4144 -49.33551,-84.976 -69.5143,-109.0497 -22.21077,-26.4978 -46.17558,-44.2236 -66.07961,-48.8761 -9.49192,-2.2188 -23.14178,-2.9471 -30.66836,-1.6364 -33.59901,5.851 -77.32032,45.6299 -133.85504,121.7852 -17.38621,23.4201 -72.54392,101.9161 -82.22116,117.0105 l -1.72996,2.6984 h 2.96937 c 1.63316,0 10.13041,-1.1201 18.88279,-2.4891 z m 1088.11458,-0.2093 c -0.041,-1.5698 -44.9445,-64.4322 -68.5121,-95.9143 -42.8781,-57.2777 -81.874,-99.3179 -108.5787,-117.0552 -10.6216,-7.0549 -30.3494,-16.5969 -37.8318,-18.2988 -8.4143,-1.9137 -21.9007,-1.9338 -30.8141,-0.045 -8.5925,1.8202 -24.4348,9.5921 -33.3891,16.3802 -22.1288,16.7752 -46.1845,45.5029 -69.5639,83.0745 -19.4826,31.3093 -55.26573,96.0514 -53.81905,97.3745 0.39513,0.3614 17.05574,1.3832 37.02355,2.2706 139.6893,6.208 244.0607,15.3545 346.8615,30.397 19.1408,2.8008 18.6485,2.7528 18.6237,1.8171 z"
     id="path4624"
     inkscape:connector-curvature="0"
     transform="scale(0.75000001)" />
  <ellipse
     style="fill:#ffffff;fill-opacity:1;stroke-width:0.75"
     id="path4630"
     cx="370.90143"
     cy="400.21301"
     rx="192.80986"
     ry="202.74472" />
  <ellipse
     style="fill:#ffffff;fill-opacity:1;stroke-width:0.75"
     id="path4630-3"
     cx="900.0246"
     cy="404.99646"
     rx="192.80986"
     ry="202.74472" />
  <circle
     style="fill:#142636;fill-opacity:1;stroke-width:0.75"
     id="path4649"
     cx="286.6391"
     cy="410.51584"
     r="63.656693" />
  <circle
     style="fill:#142636;fill-opacity:1;stroke-width:0.75"
     id="path4649-6"
     cx="911.06335"
     cy="409.41196"
     r="63.656693" />
</svg>
